<svg width="157" height="51" viewBox="0 0 157 51" fill="none" xmlns="http://www.w3.org/2000/svg">
<path fill-rule="evenodd" clip-rule="evenodd" d="M153.45 0.0794801C151.803 0.466999 150.855 2.2785 151.573 3.66695L151.826 4.15589L148.261 7.83765C143.244 13.0193 143.652 12.6605 143.151 12.3324C142.61 11.9778 141.159 11.9631 140.496 12.3056L139.993 12.5661L137.989 11.3774C136.887 10.7238 134.512 9.32411 132.711 8.26736L129.437 6.34599L129.683 5.86906C130.034 5.19025 130.012 4.11322 129.633 3.46443C128.675 1.82413 126.348 1.59856 124.999 3.01541C124.237 3.81511 124.083 4.54163 124.464 5.53915L124.747 6.27978L123.379 7.68235C120.396 10.739 117.75 13.4946 117.281 14.0316L116.787 14.5967L116.198 14.3156C114.332 13.4257 112.049 14.6994 112.049 16.631C112.049 18.5881 114.256 19.8029 116.204 18.9183C117.48 18.3386 118.066 16.821 117.485 15.5981L117.204 15.0061L118.432 13.6685C119.108 12.9327 120.891 11.0559 122.396 9.49808L125.131 6.66552L125.754 6.96087C126.532 7.33021 127.733 7.34092 128.422 6.98472L128.947 6.71307L134.211 9.82149C137.106 11.5311 139.474 12.9509 139.474 12.9768C139.474 13.0026 139.365 13.2329 139.232 13.4886C138.864 14.1934 138.92 15.3461 139.354 15.9984C139.812 16.6875 140.958 17.2812 141.821 17.2765C143.871 17.2653 145.139 15.4796 144.425 13.6097L144.14 12.8631L145.918 11.0553C146.897 10.0609 148.713 8.20278 149.955 6.92598L152.213 4.60459L152.781 4.89702C153.52 5.27707 154.797 5.27058 155.586 4.88241C156.695 4.33667 157.336 2.65564 156.818 1.65017C156.179 0.410364 154.793 -0.236475 153.45 0.0794801ZM155.221 1.13623C156.224 1.65487 156.444 3.03748 155.645 3.78898C154.148 5.19528 151.555 3.81008 152.304 2.00361C152.713 1.01566 154.157 0.58611 155.221 1.13623ZM128.039 3.16438C129.229 3.74063 129.451 4.94116 128.537 5.85575C128.055 6.33804 127.882 6.4075 127.163 6.4075C126.475 6.4075 126.248 6.32538 125.768 5.90379C125.271 5.46758 125.194 5.30255 125.194 4.6708C125.194 3.64423 125.909 2.97549 127.131 2.85946C127.259 2.84729 127.667 2.98457 128.039 3.16438ZM143.242 13.508C144.542 14.8075 143.12 16.8074 141.254 16.305C140.532 16.1106 139.799 15.3243 139.799 14.7443C139.799 13.1032 142.034 12.3005 143.242 13.508ZM116.273 15.4181C117.159 16.2673 117.034 17.3225 115.961 18.0449C115.657 18.2491 115.194 18.416 114.93 18.416C113.861 18.416 112.861 17.5537 112.861 16.631C112.861 15.0851 115.096 14.2906 116.273 15.4181ZM88.8353 21.2965C88.8272 25.1253 88.8139 25.294 88.5513 24.911C87.7489 23.7405 87.3863 23.4734 86.2491 23.2148C82.3711 22.3326 79.0172 23.8204 77.3981 27.1404L76.7932 28.3812L76.5439 27.7395C76.1815 26.8061 75.1282 25.3487 74.3835 24.7504C71.864 22.7255 67.3264 22.3863 64.2236 23.9908C63.9521 24.1311 63.322 24.6189 62.8235 25.0746C61.1439 26.6094 60.1459 29.3664 60.3337 31.9523C60.6774 36.6887 63.8755 39.6819 68.6402 39.7267C70.5372 39.7445 71.6404 39.5086 73.1218 38.7683C74.4426 38.1081 75.8362 36.6361 76.3584 35.3494L76.7206 34.457L77.0505 35.24C77.5228 36.361 78.4023 37.6576 79.0558 38.1962C80.878 39.6983 83.5535 40.1582 86.1533 39.4164C87.2223 39.1115 87.5898 38.8483 88.2256 37.9324L88.7626 37.1591L88.8437 38.2139L88.9249 39.2687L91.2373 39.3137L93.5498 39.3588V28.3194V17.2801H91.1968H88.8437L88.8353 21.2965ZM125.033 27.1385C125.033 33.1077 125.097 37.2237 125.193 37.572C125.377 38.2316 126.186 39.0795 126.898 39.3581C127.43 39.5663 129.737 39.6832 130.833 39.5573L131.523 39.4781V37.8723V36.2666H130.991C130.698 36.2666 130.297 36.1528 130.098 36.0139L129.738 35.7614V27.0278C129.738 22.2244 129.692 18.0662 129.636 17.7872L129.535 17.2801H127.283H125.032L125.033 27.1385ZM7.25312 18.5814C3.81884 19.4811 1.28617 22.021 0.298222 25.5563C0.0724937 26.3644 0.00271435 27.1993 0.00011791 29.1264C-0.00280309 31.3108 0.0465295 31.8018 0.375142 32.8588C1.43303 36.2617 3.80715 38.5987 7.07591 39.4549C9.43072 40.0715 13.0278 39.6738 15.0794 38.5698C16.1597 37.9885 17.6098 36.522 18.1233 35.4917L18.5382 34.6589L18.7356 35.6616C18.9913 36.962 19.3741 37.6917 20.1849 38.4241C21.4162 39.5367 23.1445 39.9841 25.0613 39.6866C26.828 39.4125 27.6399 38.9661 28.0535 38.0413L28.3953 37.2774L28.6387 38.273L28.8821 39.2687L31.104 39.3138L33.326 39.359L33.2557 36.7985C33.2171 35.3903 33.1531 32.6656 33.1137 30.7436C33.0515 27.7172 32.9968 27.1287 32.7052 26.3493C31.8489 24.0604 29.7847 22.9556 26.3775 22.9623C23.3225 22.9683 20.8736 24.2123 19.8345 26.2865C19.6403 26.6744 19.2266 28.2256 19.2266 28.5664C19.2266 28.6066 20.2308 28.6387 21.4579 28.6378L23.6893 28.636L24.0138 27.7994C24.1923 27.3394 24.5308 26.8211 24.7661 26.6474C25.351 26.2159 26.4749 26.1106 27.211 26.4181C28.0417 26.7652 28.332 27.2899 28.3663 28.5071L28.3953 29.5321L26.3668 29.641C22.7133 29.8371 20.7824 30.643 19.392 32.5517L18.8729 33.2645L18.928 32.6965L18.9832 32.1285L16.6836 32.0836L14.3839 32.0386L14.1291 32.9151C13.9889 33.397 13.6363 34.1445 13.3455 34.576C11.7579 36.9311 7.80178 36.7661 6.15401 34.2761C4.44555 31.6946 4.41748 26.344 6.09932 23.8519C7.04264 22.4543 8.34557 21.7742 10.0579 21.7856C12.304 21.8005 13.641 22.81 14.2788 24.973L14.4748 25.6374L16.6397 25.6828C17.8304 25.708 18.8905 25.6953 18.9957 25.6551C19.3074 25.5355 18.9598 23.9943 18.333 22.7164C17.494 21.0063 16.0598 19.6641 14.3583 18.9965C12.3957 18.2267 9.29798 18.0456 7.25312 18.5814ZM41.5125 23.3678C40.5544 23.8467 40.435 23.9697 39.719 25.2153L39.1967 26.1242L39.1796 25.3128C39.1626 24.4982 39.0816 23.8569 38.9502 23.4965C38.9002 23.3597 38.2396 23.3035 36.6919 23.3047L34.5042 23.3063L34.401 24.3095C34.3442 24.8614 34.3207 28.4529 34.3486 32.2908L34.3996 39.2687L36.782 39.3135L39.1644 39.3585L39.2161 34.6886L39.2679 30.0189L39.7547 29.0452C40.3719 27.8108 41.366 27.0922 42.6842 26.9275C43.1786 26.8658 43.6293 26.8615 43.6859 26.9179C43.7424 26.9744 43.6687 27.4031 43.5223 27.8707C42.6498 30.6563 42.8233 33.6367 43.9818 35.7653C44.5666 36.8399 45.9362 38.1273 47.0246 38.6256C48.2733 39.1973 50.1158 39.449 51.4923 39.236C53.2058 38.9708 53.9883 38.5536 54.6694 37.5421L55.2523 36.6767L55.2513 38.0538C55.2503 39.745 55.0544 40.4925 54.4245 41.2099C53.747 41.9815 52.6896 42.3499 51.1853 42.3382C49.5583 42.3257 48.6842 41.8762 48.1354 40.7698L47.7531 39.999H45.5575H43.3619L43.4657 40.7567C43.9076 43.98 46.7061 45.8314 51.1468 45.8382C54.2862 45.8429 55.8754 45.3611 57.7309 43.842C58.6544 43.086 59.2467 42.1274 59.6925 40.668C59.9971 39.6705 60.025 39.057 60.082 32.1285C60.1157 28.0229 60.0967 24.3492 60.0396 23.9648L59.9356 23.2659L57.7156 23.3157L55.4957 23.3655L55.4499 24.0958C55.3754 25.2835 55.2928 25.326 54.7081 24.477C54.0264 23.4871 53.1511 23.1289 51.1142 23.0064C48.7289 22.8629 46.9907 23.4497 45.4307 24.925C44.9692 25.3615 44.547 25.7185 44.4923 25.7185C44.4376 25.7185 44.3715 25.1162 44.3456 24.3798L44.2985 23.041L43.3249 22.9947C42.5417 22.9575 42.1871 23.0306 41.5125 23.3678ZM99.7032 23.2474C97.5537 23.8287 95.706 25.3581 94.7386 27.3574C94.0519 28.7767 93.8111 29.9172 93.8343 31.6417C93.9063 36.985 97.7794 40.3542 103.085 39.689C105.761 39.3534 107.784 38.0781 108.865 36.0461L109.239 35.3419L109.517 36.2505C110.021 37.8973 111.085 38.9662 112.78 39.5277C113.602 39.8004 115.825 39.7969 116.674 39.5217C118.103 39.0591 118.408 38.8366 118.788 37.9822L119.153 37.1591L119.273 37.9705C119.484 39.396 119.397 39.3499 121.894 39.3499H124.1L123.979 38.3356C123.913 37.7779 123.811 34.9481 123.753 32.0474C123.651 26.9879 123.632 26.7423 123.274 26.0115C122.83 25.1029 121.84 24.0732 121.051 23.6988C119.551 22.9866 116.49 22.751 114.722 23.2113C112.247 23.8559 110.811 25.1171 110.197 27.1836C109.74 28.7223 109.627 28.6395 112.191 28.6395H114.443L114.543 28.1391C114.858 26.5643 116.513 25.7671 118.001 26.473C118.776 26.8409 118.99 27.2478 119.054 28.4773L119.109 29.5321L117.161 29.6259C116.09 29.6775 114.812 29.8157 114.321 29.9331C111.726 30.5533 109.981 31.9364 109.554 33.7107L109.447 34.157H107.191H104.934L104.75 34.7168C104.332 35.9807 102.493 36.8269 101.023 36.4313C99.7154 36.079 98.9918 35.075 98.6507 33.1387L98.5428 32.5263L104.12 32.5389L109.696 32.5516L109.802 31.9343C109.972 30.9363 109.681 28.8057 109.218 27.6612C108.395 25.6234 106.868 24.0998 104.968 23.4183C103.63 22.9387 101.143 22.8581 99.7032 23.2474ZM136.517 23.2122C132.07 24.29 129.591 29.0621 130.874 34.0765C131.551 36.7226 133.121 38.4539 135.674 39.3677C136.957 39.8271 139.759 39.8696 141.159 39.4511C143.644 38.7087 145.648 36.7598 146.064 34.6805L146.168 34.157H143.889H141.609L141.43 34.6982C141.06 35.8218 139.999 36.4553 138.484 36.4591C137.411 36.4617 136.731 36.1532 136.161 35.4057C135.732 34.8437 135.164 32.9756 135.336 32.6963C135.4 32.5936 137.449 32.5342 140.933 32.5342H146.429L146.53 31.6822C146.673 30.4819 146.251 28.3132 145.629 27.0492C145.025 25.8222 143.583 24.3062 142.545 23.8063C140.825 22.9777 138.449 22.7437 136.517 23.2122ZM154.271 23.2028C153.3 23.631 152.805 24.0922 152.269 25.068C151.978 25.597 151.701 25.9902 151.652 25.942C151.604 25.8938 151.56 25.5134 151.554 25.0967C151.549 24.6801 151.531 24.1094 151.514 23.8287L151.483 23.3181L149.404 23.2944C148.261 23.2815 147.209 23.3154 147.067 23.3701C146.836 23.4588 146.808 24.2944 146.799 31.327L146.79 39.1847L147.149 39.2736C147.346 39.3226 148.42 39.3414 149.536 39.3156L151.564 39.2687L151.645 34.6438C151.722 30.2524 151.745 29.978 152.099 29.2095C152.305 28.7643 152.633 28.2262 152.83 28.0135C153.358 27.4418 154.503 27.0043 155.748 26.8994L156.848 26.8066L156.802 24.9237L156.757 23.041L155.783 23.0031C155.202 22.9806 154.593 23.0609 154.271 23.2028ZM53.5951 26.8014C54.9589 27.6445 55.57 29.622 55.2492 32.1533C54.9748 34.3176 54.0858 35.5359 52.4689 35.9635C50.6752 36.4378 48.83 35.3765 48.1742 33.4933C47.749 32.272 47.7568 29.8527 48.1894 28.6749C48.5651 27.6527 49.4794 26.6872 50.3333 26.411C51.3146 26.0936 52.723 26.2622 53.5951 26.8014ZM69.8736 26.3894C70.6524 26.6492 71.3973 27.4079 71.8252 28.377C72.3291 29.5183 72.4474 32.2324 72.0534 33.6098C71.5016 35.538 70.4268 36.4613 68.7343 36.4613C67.6155 36.4613 66.9872 36.172 66.3029 35.3419C65.5546 34.434 65.2512 33.2378 65.2616 31.236C65.271 29.393 65.4905 28.5386 66.2284 27.4723C66.9788 26.3876 68.5074 25.9336 69.8736 26.3894ZM87.0976 26.7897C88.4906 27.7688 88.9583 29.164 88.7938 31.8499C88.667 33.9176 88.4415 34.5649 87.5269 35.4849C86.6759 36.3409 86.1454 36.5074 84.6214 36.3972C83.4 36.3089 82.6373 35.7381 81.9469 34.3954C81.4788 33.4851 81.4601 33.3672 81.4616 31.3282C81.463 29.3485 81.4916 29.1535 81.8927 28.3961C82.7286 26.8173 83.8261 26.1619 85.4773 26.2547C86.1972 26.2953 86.5686 26.418 87.0976 26.7897ZM103.521 26.6869C104.118 27.0557 104.703 28.0831 104.857 29.0319L104.952 29.6132L102.05 29.6108C100.454 29.6093 99.0588 29.5514 98.9494 29.4818C98.7985 29.386 98.7922 29.2039 98.9236 28.7283C99.3798 27.0758 100.611 26.1249 102.113 26.2649C102.583 26.3089 103.217 26.4988 103.521 26.6869ZM139.967 26.5705C140.786 26.9833 141.34 27.8262 141.516 28.9282L141.626 29.6132L138.724 29.6108C137.129 29.6093 135.722 29.5441 135.598 29.4655C135.408 29.3454 135.418 29.1963 135.661 28.5222C136.049 27.4427 136.664 26.7292 137.446 26.4507C138.381 26.1177 139.141 26.1539 139.967 26.5705ZM28.4104 32.7797C28.5607 33.3789 28.3323 34.6488 27.9672 35.2442C27.5807 35.8744 26.7821 36.3886 26.1234 36.4315C24.9065 36.5108 24.5537 36.4258 24.063 35.9351C23.6041 35.4761 23.5745 35.3763 23.6448 34.5278C23.7084 33.7618 23.7967 33.5536 24.1918 33.2375C24.9028 32.6686 25.8333 32.3989 27.1346 32.3847C28.257 32.3724 28.3124 32.3896 28.4104 32.7797ZM119.093 32.7747C119.233 33.3333 119.04 34.4457 118.678 35.1691C118.281 35.9602 117.319 36.4618 116.215 36.4534C115.218 36.4456 114.645 36.0686 114.366 35.2368C113.819 33.6047 115.288 32.3946 117.833 32.3791C118.935 32.3723 118.997 32.392 119.093 32.7747ZM146.165 44.2487C146.265 44.5496 146.615 44.5994 146.615 44.3128C146.615 44.1715 146.499 44.0559 146.358 44.0559C146.216 44.0559 146.13 44.1426 146.165 44.2487ZM148.882 45.4664C148.661 45.6175 148.427 45.8183 148.362 45.9127C148.295 46.0084 148.241 45.9229 148.24 45.7193C148.239 45.5184 148.164 45.3541 148.075 45.3541C147.974 45.3541 147.913 46.2467 147.913 47.7072C147.913 49.1677 147.974 50.0602 148.075 50.0602C148.171 50.0602 148.238 49.4781 148.238 48.6403C148.239 46.9579 148.444 46.1039 148.929 45.7645C149.421 45.4199 150.392 45.451 150.856 45.8262C151.214 46.1159 151.243 46.2647 151.294 48.0981C151.323 49.1772 151.415 50.0602 151.497 50.0602C151.578 50.0602 151.645 49.2534 151.645 48.267C151.645 45.7921 151.306 45.1919 149.907 45.1919C149.564 45.1919 149.103 45.3154 148.882 45.4664ZM153.641 45.5099C152.936 45.9398 152.619 46.621 152.619 47.7072C152.619 48.7268 152.894 49.3828 153.53 49.8836C154.312 50.4987 155.822 50.2337 156.423 49.3759C156.716 48.9567 156.744 48.762 156.51 48.762C156.419 48.762 156.265 48.9364 156.168 49.1498C155.803 49.9494 154.243 50.1851 153.632 49.5328C152.937 48.7917 152.749 47.5933 153.17 46.5873C153.475 45.8569 154.01 45.5164 154.853 45.5164C155.404 45.5164 155.641 45.6089 155.953 45.9458C156.172 46.1819 156.351 46.474 156.351 46.5949C156.351 46.7158 156.424 46.8146 156.514 46.8146C156.851 46.8146 156.655 46.2746 156.124 45.7436C155.665 45.2848 155.453 45.192 154.866 45.1925C154.453 45.1928 153.945 45.3243 153.641 45.5099ZM146.128 47.7072C146.128 49.6462 146.169 50.0602 146.361 50.0602C146.552 50.0602 146.594 49.691 146.593 48.045C146.591 45.9646 146.518 45.3541 146.271 45.3541C146.192 45.3541 146.128 46.413 146.128 47.7072Z" fill="#145500"/>
</svg>
