<svg xmlns="http://www.w3.org/2000/svg" viewBox="0 0 530.71013 90.20949"><defs><style>.cls-1{fill:#fff;}</style></defs><g id="Layer_2" data-name="Layer 2"><g id="Layer_1-2" data-name="Layer 1"><path class="cls-1" d="M46.47163,90.20949A46.52811,46.52811,0,0,1,10.95015,73.91555C-1.78228,58.689-3.60845,37.10549,6.50874,21.42922A47.5724,47.5724,0,0,1,37.20991.69387,38.623,38.623,0,0,1,67.375,7.36281,41.1657,41.1657,0,0,1,82.7314,30.62551c3.502,14.50342-4.47168,27.87793-18.96,31.80078-8.53321,2.30957-17.21094,1.94141-25.6045,1.58594-3.07129-.12988-5.97265-.25293-8.88281-.25391a6.42382,6.42382,0,0,1-6.5791-6.24023v-17.582a6.11276,6.11276,0,0,1,2.13769-4.60889l13.3086-11.53564a6.85134,6.85134,0,0,1,8.77832-.09278l.32324.3003L59.84956,37.01662a4.02808,4.02808,0,1,1-5.78906,5.60254L42.50581,30.67922,30.76167,40.85891V55.71145c2.59766.0332,5.208.14355,7.74609.251,8.14161.34375,15.82911.6709,23.15821-1.31347,10.2666-2.78028,15.709-11.88135,13.2334-22.13281A32.98488,32.98488,0,0,0,62.61323,13.86281,30.36107,30.36107,0,0,0,38.67378,8.61672,39.37167,39.37167,0,0,0,13.27827,25.79836C5.05562,38.53908,6.6396,56.20071,17.13179,68.74758A38.41922,38.41922,0,0,0,59.15718,79.939a48.95263,48.95263,0,0,0,24.835-21.30469A4.02907,4.02907,0,1,1,90.957,62.687,56.35074,56.35074,0,0,1,61.9228,87.50539,44.9775,44.9775,0,0,1,46.47163,90.20949Z"/><path class="cls-1" d="M117.36189,73.051V9.63168h10.42744V73.051Zm8.42743-27.02018V36.73733H161.67v9.29352ZM159.66994,73.051V9.63168h10.42744V73.051Z"/><path class="cls-1" d="M208.06352,74.61229a26.99475,26.99475,0,0,1-10.86049-2.0399,23.82749,23.82749,0,0,1-7.9089-5.43025,22.97414,22.97414,0,0,1-4.86044-7.68667,24.53657,24.53657,0,0,1-1.65244-8.90606V48.8115a24.44462,24.44462,0,0,1,1.69232-8.94594A23.45352,23.45352,0,0,1,197.374,26.65747a27.13124,27.13124,0,0,1,10.68955-1.99432,26.79433,26.79433,0,0,1,10.63826,1.99432,24.11636,24.11636,0,0,1,7.94879,5.43024,23.43393,23.43393,0,0,1,4.99719,7.77785,24.44442,24.44442,0,0,1,1.69232,8.94594v1.73791a24.652,24.652,0,0,1-1.64673,8.90606,23.17061,23.17061,0,0,1-4.86614,7.68667,23.82759,23.82759,0,0,1-7.9089,5.43025A26.98574,26.98574,0,0,1,208.06352,74.61229Zm0-8.86047a15.06194,15.06194,0,0,0,8.16531-2.12538,13.89839,13.89839,0,0,0,5.16813-5.77782,18.40489,18.40489,0,0,0,1.7778-8.16531,18.17231,18.17231,0,0,0-1.82338-8.25648,14.15683,14.15683,0,0,0-5.21372-5.77783,16.41,16.41,0,0,0-16.154,0A14.15676,14.15676,0,0,0,194.77,41.42683a18.17218,18.17218,0,0,0-1.82338,8.25648,18.405,18.405,0,0,0,1.77779,8.16531,13.86007,13.86007,0,0,0,5.16814,5.77782A15.05487,15.05487,0,0,0,208.06352,65.75182Z"/><path class="cls-1" d="M244.98121,73.051V26.22442h8.07984v20.154h-.95727a33.80749,33.80749,0,0,1,1.78349-11.72659,14.96073,14.96073,0,0,1,5.38466-7.29921,15.35536,15.35536,0,0,1,8.99153-2.51854h.433a15.51649,15.51649,0,0,1,9.0827,2.51854,14.99545,14.99545,0,0,1,5.38466,7.29921,33.80772,33.80772,0,0,1,1.78349,11.72659h-2.78065a32.95984,32.95984,0,0,1,1.82338-11.72659,15.09924,15.09924,0,0,1,5.47013-7.29921,15.56587,15.56587,0,0,1,9.03711-2.51854h.43305a15.709,15.709,0,0,1,9.12259,2.51854,15.1434,15.1434,0,0,1,5.47583,7.29921,33.08822,33.08822,0,0,1,1.82338,11.72659V73.051H305.18685V44.90264q0-5.11971-2.56413-7.99437a9.01552,9.01552,0,0,0-7.077-2.86612,9.72651,9.72651,0,0,0-7.47585,2.99717q-2.77779,3-2.77495,8.29637V73.051h-10.2565V44.90264q0-5.11971-2.51854-7.99437a8.88106,8.88106,0,0,0-7.03709-2.86612,9.83634,9.83634,0,0,0-7.51,2.99717q-2.82908,3-2.82623,8.29637V73.051Z"/><path class="cls-1" d="M349.92227,74.61229a25.15845,25.15845,0,0,1-10.59838-2.07979,20.78575,20.78575,0,0,1-7.38468-5.52141,23.57614,23.57614,0,0,1-4.302-7.73226,27.78382,27.78382,0,0,1-1.43021-8.81489V48.8115a28.134,28.134,0,0,1,1.43021-8.906,23.60712,23.60712,0,0,1,4.302-7.72657,20.65605,20.65605,0,0,1,7.25362-5.47583,23.962,23.962,0,0,1,10.21092-2.0399q7.55562,0,12.5927,3.29917a20.86778,20.86778,0,0,1,7.56131,8.55848,25.86839,25.86839,0,0,1,2.51854,11.33913v4.07981H330.54889V45.07928h34.66126l-2.77495,3.47011a20.43427,20.43427,0,0,0-1.4815-8.11972,11.62413,11.62413,0,0,0-4.34192-5.29919,12.92213,12.92213,0,0,0-7.208-1.869,13.06109,13.06109,0,0,0-7.56132,2.08549,12.39757,12.39757,0,0,0-4.51856,5.73224,22.833,22.833,0,0,0-1.47579,8.60407,22.38732,22.38732,0,0,0,1.47579,8.38183,12.44314,12.44314,0,0,0,4.604,5.81772,16.06034,16.06034,0,0,0,15.98874,0,8.5672,8.5672,0,0,0,3.82339-4.9915h9.47017a18.78556,18.78556,0,0,1-3.869,8.33625,19.04545,19.04545,0,0,1-7.33909,5.47583A25.29762,25.29762,0,0,1,349.92227,74.61229Z"/><path class="cls-1" d="M399.18195,74.44135q-9.47017,0-14.72378-3.99434a13.77492,13.77492,0,0,1-5.51571-11.03713h9.379a6.91115,6.91115,0,0,0,2.69518,4.78067q2.52139,2.171,8.25079,2.171a13.36242,13.36242,0,0,0,7.64678-1.90885,5.66074,5.66074,0,0,0,2.78065-4.78067,4.883,4.883,0,0,0-2.0399-4.12539q-2.04274-1.52137-6.91174-2.0399l-4.604-.43875q-7.20517-.77778-11.4189-4.25645a11.50267,11.50267,0,0,1-4.21656-9.379,13.03585,13.03585,0,0,1,2.3476-7.9089,15.00688,15.00688,0,0,1,6.473-4.95161,24.34693,24.34693,0,0,1,9.51-1.73791q8.342,0,13.46451,3.69234,5.12824,3.69234,5.29919,10.81491h-9.29353a6.05831,6.05831,0,0,0-2.51854-4.51286q-2.35044-1.82907-6.95163-1.82908-4.34192,0-6.64393,1.73791a5.32838,5.32838,0,0,0-2.302,4.43309,4.618,4.618,0,0,0,1.73791,3.82339,11.14824,11.14824,0,0,0,5.64677,1.82338l4.604.43305q7.89751.8718,12.55282,4.3875a11.57419,11.57419,0,0,1,4.64391,9.77216,12.88857,12.88857,0,0,1-2.51854,7.9089,16.29835,16.29835,0,0,1-6.99151,5.25361A26.751,26.751,0,0,1,399.18195,74.44135Z"/><path class="cls-1" d="M435.75775,19.71154a6.02957,6.02957,0,0,1-4.64961-1.65243,6.031,6.031,0,0,1-1.52138-4.25645,6.08622,6.08622,0,0,1,1.52138-4.21656,5.94215,5.94215,0,0,1,4.64961-1.69232,6.05971,6.05971,0,0,1,4.73509,1.69232,6.08622,6.08622,0,0,1,1.52138,4.21656,6.031,6.031,0,0,1-1.52138,4.25645A6.15016,6.15016,0,0,1,435.75775,19.71154ZM432.45858,73.051V26.22442h10.15963V73.051Z"/><path class="cls-1" d="M458.25937,73.051V9.63168h10.2508V73.051Z"/><path class="cls-1" d="M505.43356,74.61229a26.99475,26.99475,0,0,1-10.86049-2.0399,23.82759,23.82759,0,0,1-7.9089-5.43025,22.97414,22.97414,0,0,1-4.86044-7.68667,24.53678,24.53678,0,0,1-1.65244-8.90606V48.8115a24.44462,24.44462,0,0,1,1.69232-8.94594A23.45352,23.45352,0,0,1,494.744,26.65747a27.13124,27.13124,0,0,1,10.68955-1.99432,26.79433,26.79433,0,0,1,10.63826,1.99432,24.11626,24.11626,0,0,1,7.94879,5.43024,23.43393,23.43393,0,0,1,4.99719,7.77785,24.44443,24.44443,0,0,1,1.69233,8.94594v1.73791a24.652,24.652,0,0,1-1.64674,8.90606,23.17045,23.17045,0,0,1-4.86614,7.68667,23.82759,23.82759,0,0,1-7.9089,5.43025A26.98574,26.98574,0,0,1,505.43356,74.61229Zm0-8.86047a15.06194,15.06194,0,0,0,8.16531-2.12538,13.89839,13.89839,0,0,0,5.16813-5.77782,18.40489,18.40489,0,0,0,1.7778-8.16531,18.17231,18.17231,0,0,0-1.82338-8.25648A14.15683,14.15683,0,0,0,513.5077,35.649a16.41,16.41,0,0,0-16.154,0A14.15676,14.15676,0,0,0,492.14,41.42683a18.17218,18.17218,0,0,0-1.82338,8.25648,18.405,18.405,0,0,0,1.77779,8.16531,13.86007,13.86007,0,0,0,5.16814,5.77782A15.05489,15.05489,0,0,0,505.43356,65.75182Z"/></g></g></svg>