<svg width="152" height="27" viewBox="0 0 152 27" fill="none" xmlns="http://www.w3.org/2000/svg">
<g clip-path="url(#clip0_603_1901)">
<path d="M16.8382 12.6405L13.5653 9.44026L10.2946 6.24215L6.08594 2.12697C6.73885 1.813 7.41963 1.55779 8.11985 1.3645C9.73119 1.81301 11.2287 2.58629 12.5161 3.63461C13.8034 4.68294 14.8522 5.9831 15.5949 7.4515C16.4138 9.06398 16.8394 10.8401 16.8382 12.6405Z" fill="white"/>
<path d="M23.3673 12.6406C23.3696 14.1799 23.0612 15.7045 22.4599 17.127C21.8585 18.5495 20.9759 19.842 19.8628 20.9304C18.7497 22.0189 17.4278 22.8818 15.973 23.4698C14.5182 24.0578 12.959 24.3594 11.3848 24.3571L13.5508 22.2392L20.1031 15.8324L23.3673 12.6406Z" fill="white"/>
<path d="M23.3665 12.6405L20.1022 9.44874L16.8293 6.25063L13.5586 3.05252L11.3926 0.934571C12.9663 0.934014 14.5247 1.23669 15.9788 1.8253C17.4328 2.41392 18.754 3.27693 19.8668 4.36502C20.9796 5.45311 21.8622 6.74495 22.4642 8.16671C23.0662 9.58848 23.3757 11.1123 23.3751 12.6511L23.3665 12.6405Z" fill="white"/>
<path d="M10.2932 12.6406C10.296 14.4402 9.87341 16.216 9.05856 17.8296C8.10369 19.7145 6.64965 21.3147 4.84777 22.4637C3.93299 21.8802 3.10373 21.1777 2.38281 20.3754L7.02465 15.8387L10.2932 12.6406Z" fill="white"/>
<path d="M16.8382 12.6406C16.8393 14.4417 16.4137 16.2185 15.5949 17.8317C14.8505 19.3001 13.8004 20.6001 12.512 21.6484C11.2236 22.6966 9.72536 23.4699 8.11335 23.9187C7.41558 23.7271 6.737 23.474 6.08594 23.1626L10.2946 19.039L13.5653 15.8409L16.8382 12.6406Z" fill="white"/>
<path d="M3.75375 12.6404L0 8.97215C0.368703 7.88035 0.900045 6.84769 1.57688 5.90747C2.99748 7.8775 3.75806 10.2299 3.75375 12.6404Z" fill="white"/>
<path d="M10.2932 12.6404L2.38281 4.90567C3.10392 4.10724 3.93325 3.40891 4.84777 2.83008C6.64819 3.97619 8.10209 5.57259 9.05856 7.45357C9.87338 9.0664 10.2959 10.8416 10.2932 12.6404Z" fill="white"/>
<path d="M3.75376 12.6406C3.76068 15.0505 3.00399 17.4034 1.58771 19.3757C0.90751 18.4359 0.372536 17.4033 0 16.311L3.75376 12.6406Z" fill="white"/>
<path d="M29.041 13.1191C29.041 7.36247 32.667 3.68994 37.2178 3.68994C42.36 3.68994 45.2322 7.86443 45.2322 12.4159C45.2322 18.1725 41.5802 21.845 37.0294 21.845C31.8937 21.845 29.041 17.6706 29.041 13.1191ZM42.5658 12.7675C42.5658 8.87046 40.8178 4.52018 37.0121 4.52018C33.5745 4.52441 31.6879 8.26684 31.6879 12.7675C31.6879 16.6645 33.4381 21.0148 37.2438 21.0148C40.69 21.0148 42.5658 17.2681 42.5658 12.7675Z" fill="white"/>
<path d="M48.1451 10.6813L46.4729 9.80024V9.52279L50.2526 8.26685H50.5624L50.4692 10.5034C51.4721 9.17121 52.8519 8.26685 54.8013 8.26685C58.0504 8.26685 59.8656 10.6813 59.8656 14.3009C59.8656 18.9604 56.9869 21.845 53.4129 21.845C52.2801 21.845 51.2014 21.5422 50.4801 20.9386V24.9627C50.4801 25.992 50.9956 26.1445 52.7696 26.2695V26.9239H46.3711V26.2695C47.7335 26.1932 48.1451 25.992 48.1451 25.0114V10.6813ZM57.5306 15.326C57.5306 12.4837 56.4475 9.71764 53.519 9.71764C52.9418 9.73054 52.3733 9.85897 51.8488 10.095C51.3242 10.3311 50.8547 10.6697 50.4692 11.0901V17.9522C50.4692 20.1909 51.5761 21.1292 53.4021 21.1292C55.9104 21.1144 57.5306 18.5749 57.5306 15.326Z" fill="white"/>
<path d="M72.1088 13.244V13.7735H63.5703C63.3905 17.8464 65.4482 20.1592 68.119 20.1592C69.9688 20.1592 71.0756 19.312 71.9745 17.9226L72.2843 18.073C71.667 20.2608 69.9016 21.845 67.2179 21.845C63.5659 21.845 61.4844 18.9519 61.4844 15.4319C61.4844 11.3082 63.9537 8.26685 67.2699 8.26685C70.4366 8.26685 72.1088 10.4293 72.1088 13.244ZM63.6483 13.0322H69.8713C69.8713 10.7703 69.0742 9.06108 67.0684 9.06108C65.0627 9.06108 63.8974 10.8063 63.6483 13.0428V13.0322Z" fill="white"/>
<path d="M83.1904 12.3609C83.1904 10.4992 82.4193 9.71976 80.9031 9.71976C79.5905 9.71976 78.3298 10.425 77.3529 11.2553V19.6826C77.3529 20.6632 77.7645 20.8623 79.1269 20.9386V21.593H73.2656V20.9386C74.6281 20.8623 75.0396 20.6632 75.0396 19.6826V10.6813L73.3674 9.80024V9.52279L77.1472 8.26685H77.4569L77.3529 10.6665C78.5616 9.35759 80.054 8.27744 82.0338 8.27744C84.3991 8.27744 85.4994 9.60963 85.4994 12.3248V19.6826C85.4994 20.6632 85.9088 20.8623 87.2734 20.9386V21.593H81.4165V20.9386C82.7789 20.8623 83.1904 20.6632 83.1904 19.6826V12.3609Z" fill="white"/>
<path d="M104.354 10.6815C104.424 10.4877 104.459 10.2834 104.458 10.0779C104.458 9.42341 103.808 9.32386 102.708 9.17137V8.51904H106.875V9.17137C105.922 9.39799 105.768 9.57378 105.563 10.1012L100.882 21.8452H100.267L97.1539 13.3204L93.8875 21.8452H93.2962L88.5136 10.1012C88.2818 9.57378 88.154 9.39799 87.2031 9.17137V8.51904H92.8348V9.17137C91.702 9.32386 91.0847 9.42341 91.0847 10.0779C91.0852 10.2833 91.1204 10.4872 91.1886 10.6815L94.2493 18.6767L96.7424 12.0645L96.0233 10.1012C95.8435 9.57378 95.6637 9.39799 94.7106 9.17137V8.51904H100.085V9.17137C98.9539 9.32386 98.3366 9.39799 98.3366 10.0779C98.3391 10.2831 98.3742 10.4867 98.4406 10.6815L101.243 18.6259L104.354 10.6815Z" fill="white"/>
<path d="M116.824 18.8015C116.824 19.9071 117.082 20.462 117.827 20.462C118.241 20.4383 118.646 20.3263 119.012 20.1337L119.139 20.5107C118.88 20.9219 118.516 21.2608 118.084 21.4945C117.651 21.7282 117.164 21.849 116.67 21.845C115.412 21.845 114.664 20.964 114.537 19.5555C113.635 20.587 112.197 21.845 110.397 21.845C108.392 21.845 107.131 20.5616 107.131 18.702C107.131 16.5841 108.751 15.7093 110.783 14.9553L114.485 13.5977V11.8864C114.485 10.1518 113.815 8.89588 112.119 8.89588C110.653 8.89588 110.036 9.85108 110.036 11.1324C110.037 11.5745 110.098 12.0145 110.215 12.4413L108.853 12.6425C108.549 12.5599 108.283 12.3773 108.1 12.1254C107.917 11.8734 107.829 11.5676 107.85 11.2595C107.85 9.37242 109.856 8.26685 112.453 8.26685C115.386 8.26685 116.824 9.4995 116.824 12.1385V18.8015ZM114.485 19.0282V14.3009L111.4 15.5378C110.114 16.0397 109.368 16.745 109.368 18.0793C109.368 19.4136 110.139 20.3667 111.606 20.3667C112.659 20.3604 113.43 19.8838 114.485 19.0282Z" fill="white"/>
<path d="M131.559 9.17137C130.606 9.39799 130.476 9.57378 130.247 10.1012L125.386 21.8452H124.821L119.551 10.1012C119.319 9.57378 119.189 9.39799 118.238 9.17137V8.51904H123.948V9.17137C122.661 9.32386 122.148 9.39799 122.148 10.0016C122.159 10.2427 122.211 10.4804 122.302 10.7048L125.722 18.878L129.012 10.6815C129.118 10.4689 129.179 10.2377 129.192 10.0016C129.192 9.39799 128.679 9.34716 127.368 9.17137V8.51904H131.559V9.17137Z" fill="white"/>
<path d="M142.309 13.244V13.7735H133.768C133.588 17.8464 135.646 20.1592 138.317 20.1592C140.167 20.1592 141.274 19.312 142.172 17.9226L142.482 18.073C141.865 20.2608 140.1 21.845 137.416 21.845C133.768 21.845 131.695 18.9519 131.695 15.4319C131.695 11.3082 134.162 8.26685 137.481 8.26685C140.635 8.26685 142.309 10.4293 142.309 13.244ZM133.848 13.0322H140.071C140.071 10.7703 139.274 9.06108 137.269 9.06108C135.263 9.06108 134.104 10.8063 133.846 13.0428L133.848 13.0322Z" fill="white"/>
<path d="M147.55 19.6826C147.55 20.6632 148.142 20.8623 149.84 20.9386V21.593H143.463V20.9386C144.825 20.8623 145.237 20.6632 145.237 19.6826V10.6813L143.565 9.80026V9.52281L147.344 8.26686H147.654L147.55 11.8377C148.965 9.27289 149.582 8.26686 151.016 8.26686C151.199 8.25647 151.383 8.28734 151.552 8.3571C151.721 8.42686 151.872 8.53365 151.993 8.66927V10.5543H151.633C150.065 10.5543 148.984 10.6813 147.544 12.3905L147.55 19.6826Z" fill="white"/>
</g>
<defs>
<clipPath id="clip0_603_1901">
<rect width="152" height="26" fill="white" transform="translate(0 0.924072)"/>
</clipPath>
</defs>
</svg>
