<svg width="131" height="30" viewBox="0 0 131 30" fill="none" xmlns="http://www.w3.org/2000/svg">
<path d="M16.88 23H12.432L7.024 13.688H5.648H4.048V23H0.24V0.695999H7.44C10.0213 0.695999 11.9307 1.26133 13.168 2.392C14.4053 3.50133 15.024 5.06933 15.024 7.096C15.024 8.67467 14.6613 9.98667 13.936 11.032C13.232 12.056 12.1973 12.792 10.832 13.24L16.88 23ZM4.048 10.168H7.056C8.35733 10.168 9.37067 9.95467 10.096 9.528C10.8213 9.08 11.184 8.29067 11.184 7.16C11.184 6.02933 10.8213 5.26133 10.096 4.856C9.37067 4.42933 8.35733 4.216 7.056 4.216H4.048V10.168ZM32.5633 14.872C32.5633 15.2773 32.5313 15.768 32.4673 16.344H21.5873C21.6513 17.4533 22.0246 18.3387 22.7073 19C23.3899 19.64 24.3499 19.96 25.5873 19.96C26.3553 19.96 27.0486 19.832 27.6673 19.576C28.3073 19.2987 28.9046 18.8507 29.4593 18.232L32.0193 20.504C31.1659 21.4427 30.2059 22.1467 29.1393 22.616C28.0939 23.0853 26.9099 23.32 25.5873 23.32C23.8593 23.32 22.4193 22.9573 21.2673 22.232C20.1153 21.4853 19.2619 20.504 18.7073 19.288C18.1526 18.0507 17.8753 16.6853 17.8753 15.192C17.8753 13.7413 18.1419 12.3867 18.6753 11.128C19.2299 9.86933 20.0619 8.856 21.1713 8.088C22.3019 7.29867 23.6886 6.904 25.3313 6.904C26.8886 6.904 28.2113 7.256 29.2993 7.96C30.3873 8.664 31.1979 9.624 31.7313 10.84C32.2859 12.0347 32.5633 13.3787 32.5633 14.872ZM29.0113 13.592C29.0539 12.5893 28.7339 11.7467 28.0513 11.064C27.3686 10.36 26.4406 10.008 25.2673 10.008C24.1366 10.008 23.2513 10.36 22.6113 11.064C21.9926 11.768 21.6299 12.6107 21.5233 13.592H29.0113ZM43.1723 23H40.1323L33.6683 7.224H37.7323L41.6363 18.2L45.6043 7.224H49.6042L43.1723 23ZM65.3758 14.872C65.3758 15.2773 65.3438 15.768 65.2798 16.344H54.3998C54.4638 17.4533 54.8371 18.3387 55.5198 19C56.2024 19.64 57.1624 19.96 58.3998 19.96C59.1678 19.96 59.8611 19.832 60.4798 19.576C61.1198 19.2987 61.7171 18.8507 62.2718 18.232L64.8318 20.504C63.9784 21.4427 63.0184 22.1467 61.9518 22.616C60.9064 23.0853 59.7224 23.32 58.3998 23.32C56.6718 23.32 55.2318 22.9573 54.0798 22.232C52.9278 21.4853 52.0744 20.504 51.5198 19.288C50.9651 18.0507 50.6878 16.6853 50.6878 15.192C50.6878 13.7413 50.9544 12.3867 51.4878 11.128C52.0424 9.86933 52.8744 8.856 53.9838 8.088C55.1144 7.29867 56.5011 6.904 58.1438 6.904C59.7011 6.904 61.0238 7.256 62.1118 7.96C63.1998 8.664 64.0104 9.624 64.5438 10.84C65.0984 12.0347 65.3758 13.3787 65.3758 14.872ZM61.8238 13.592C61.8664 12.5893 61.5464 11.7467 60.8638 11.064C60.1811 10.36 59.2531 10.008 58.0798 10.008C56.9491 10.008 56.0638 10.36 55.4238 11.064C54.8051 11.768 54.4424 12.6107 54.3358 13.592H61.8238ZM77.2878 10.104H73.3518V18.168C73.3518 18.7867 73.4798 19.2987 73.7358 19.704C73.9918 20.1093 74.5144 20.312 75.3038 20.312C75.9224 20.312 76.5838 20.184 77.2878 19.928V22.84C76.3278 23.16 75.3784 23.32 74.4398 23.32C73.0104 23.32 71.8584 22.936 70.9838 22.168C70.1091 21.4 69.6718 20.184 69.6718 18.52V10.104H67.0798V7.224H69.6718V3.448L73.3518 0.919998V7.224H77.2878V10.104ZM88.9655 6.904C90.3308 6.904 91.4935 7.26667 92.4535 7.992C93.4348 8.696 94.1708 9.67733 94.6615 10.936C95.1735 12.1947 95.4295 13.6027 95.4295 15.16C95.4295 16.8453 95.1415 18.3067 94.5655 19.544C94.0108 20.76 93.2428 21.6987 92.2615 22.36C91.2802 23 90.1815 23.32 88.9655 23.32C88.0055 23.32 87.0882 23.1067 86.2135 22.68C85.3388 22.2533 84.6455 21.6773 84.1335 20.952V29.528H80.4535V7.224H84.1655V9.176C84.6988 8.42933 85.3922 7.864 86.2455 7.48C87.1202 7.096 88.0268 6.904 88.9655 6.904ZM87.8775 19.832C89.1148 19.832 90.0642 19.416 90.7255 18.584C91.4082 17.752 91.7495 16.6107 91.7495 15.16C91.7495 13.6667 91.3975 12.4827 90.6935 11.608C90.0108 10.7333 89.0615 10.296 87.8455 10.296C86.6295 10.296 85.6482 10.744 84.9015 11.64C84.1762 12.5147 83.8135 13.688 83.8135 15.16C83.8135 16.5893 84.1762 17.7307 84.9015 18.584C85.6268 19.416 86.6188 19.832 87.8775 19.832ZM105.487 6.904C107.62 6.904 109.284 7.448 110.479 8.536C111.695 9.624 112.303 11.128 112.303 13.048V23H108.911L108.655 20.664C108.1 21.5813 107.396 22.2533 106.543 22.68C105.689 23.1067 104.793 23.32 103.855 23.32C102.148 23.32 100.751 22.84 99.6628 21.88C98.5961 20.92 98.0628 19.6613 98.0628 18.104C98.0628 17.2293 98.2441 16.4827 98.6068 15.864C98.9694 15.224 99.4814 14.712 100.143 14.328C101.167 13.7733 102.5 13.496 104.143 13.496H108.623V13.048C108.623 12.1307 108.324 11.416 107.727 10.904C107.151 10.392 106.319 10.136 105.231 10.136C104.441 10.136 103.705 10.2853 103.023 10.584C102.361 10.8827 101.689 11.4053 101.007 12.152L98.3188 9.912C99.2361 8.888 100.303 8.13067 101.519 7.64C102.756 7.14933 104.079 6.904 105.487 6.904ZM104.463 20.312C105.636 20.312 106.617 19.9493 107.407 19.224C108.217 18.4987 108.623 17.5813 108.623 16.472V16.216H104.687C103.727 16.216 103.012 16.376 102.543 16.696C102.009 17.0373 101.743 17.528 101.743 18.168C101.743 18.8293 101.988 19.352 102.479 19.736C102.969 20.12 103.631 20.312 104.463 20.312ZM121.624 29.528H117.624L120.408 22.584L114.2 7.224H118.264L122.392 18.36L126.488 7.224H130.52L121.624 29.528Z" fill="#1F1D1D"/>
</svg>
